# xmcd CD database file
#
# Track frame offsets:
#	150
#	13463
#	23638
#	33928
#	45628
#	57455
#	70535
#	85640
#	98013
#	110223
#	123968
#	153160
#	164608
#	174418
#	186950
#	198978
#	214410
#	227298
#	239915
#	252813
#
# Disc length: 3506 seconds
#
# Revision: 3
# Processed by: cddbd v1.5.2PL0 Copyright (c) Steve Scherf et al.
# Submitted via: CDex 1.75
#
DISCID=0d0db014
DTITLE=Ray Charles - The Right Time
DYEAR=1987
DGENRE=Blues
TTITLE0=I Got a Woman
TTITLE1=Yes Indeed
TTITLE2=Swanee River Rock (Talkin' 'bout That River)
TTITLE3=Lonely Avenue
TTITLE4=Hallelujah I Love Her So
TTITLE5=I Had a Dream
TTITLE6=Drown in My Own Tears
TTITLE7=My Bonnie
TTITLE8=Jumpin' in the Mornin'
TTITLE9=A Fool For You
TTITLE10=What'd I Say Part 1 - What'd I Say Part 2
TTITLE11=This Little Girl of Mine
TTITLE12=I Want To Know
TTITLE13=Early in the Mornin'
TTITLE14=Leave Me Woman Alone
TTITLE15=The Right Time
TTITLE16=What Kind of Man Are You
TTITLE17=That's Enough
TTITLE18=Mary Ann
TTITLE19=I'm Moving on
EXTD=YEAR: 1987
EXTT0=
EXTT1=
EXTT2=
EXTT3=
EXTT4=
EXTT5=
EXTT6=
EXTT7=
EXTT8=
EXTT9=
EXTT10=
EXTT11=
EXTT12=
EXTT13=
EXTT14=
EXTT15=
EXTT16=
EXTT17=
EXTT18=
EXTT19=
PLAYORDER=
